<svg width="24" height="24" viewBox="0 0 24 24" fill="none" xmlns="http://www.w3.org/2000/svg">
<path d="M6.17824 1.42578C6.11317 1.47177 6.08637 1.49477 6.0902 1.4986C6.1591 1.45261 6.19738 1.42578 6.17824 1.42578Z" fill="#0866FF"/>
<path d="M23.9747 10.946C23.9709 10.8809 23.9709 10.808 23.967 10.7352C23.9594 10.6624 23.9441 10.5819 23.9326 10.5053C23.8828 10.191 23.8216 9.85755 23.7948 9.64293L23.7603 9.63143C23.7106 9.34015 23.6149 9.06803 23.5154 8.71543L23.4924 8.74609C23.412 8.43948 23.2665 7.96806 23.0943 7.49665C23.1173 7.52347 23.1555 7.64612 23.1823 7.73044C23.144 7.5848 23.0981 7.43916 23.0445 7.29352C22.9833 7.15171 22.9067 7.01373 22.834 6.87959C22.6809 6.61131 22.5545 6.33536 22.4321 6.09773C22.3517 5.98659 22.3057 5.90227 22.2636 5.81795C22.2713 5.82945 22.2751 5.83711 22.2828 5.84478C22.2751 5.83328 22.2636 5.81412 22.256 5.79879C22.2292 5.74513 22.2024 5.68764 22.1718 5.63015C22.1947 5.68381 22.2177 5.7298 22.2407 5.77196C22.1871 5.68381 22.1029 5.54966 22.0148 5.42319L22.0072 5.35037C21.9995 5.33887 21.9957 5.3312 21.988 5.31971C21.9191 5.18173 21.9115 5.22389 21.9344 5.30438C21.8923 5.23922 21.8387 5.1894 21.8043 5.14724C21.7698 5.02076 21.5478 4.83296 21.4904 4.66816C21.4483 4.63366 21.3296 4.48036 21.2071 4.33472C21.0731 4.19674 20.9353 4.06643 20.8894 4.05493C20.8894 4.04727 20.8626 4.00894 20.92 4.07026C20.809 3.93996 20.698 3.80965 20.5832 3.70233L20.5602 3.62185L20.4147 3.4992L20.2578 3.39189C20.1047 3.22325 20.0434 3.1466 20.231 3.28074C19.7946 2.9473 19.8941 2.98946 19.5152 2.71734L19.5496 2.71351C19.4157 2.61386 19.1822 2.47972 19.1171 2.4069C18.8683 2.11562 17.6012 1.36442 16.7361 0.950495C16.805 1.02715 16.7093 0.965826 16.5868 0.900671C16.4605 0.839348 16.3074 0.770361 16.2806 0.789524C16.2347 0.75503 16.1122 0.697541 16.2653 0.7397C15.7983 0.594059 15.5877 0.444586 15.2432 0.417758C15.1935 0.387097 15.3504 0.417758 15.3045 0.398595C15.2662 0.390929 15.1514 0.375599 15.1016 0.352603C15.0557 0.329607 15.1743 0.356436 15.2509 0.367934C14.7647 0.245289 14.7035 0.283615 14.6576 0.325775C14.5389 0.283615 14.447 0.252954 14.3628 0.233791C14.2786 0.222293 14.1982 0.218461 14.1063 0.222293C14.0221 0.191632 13.8805 0.153306 14.1867 0.195465C14.0145 0.168636 13.1379 0.00383264 13.1187 0.053657C13.0652 0.0421591 12.8776 0.0383264 12.8317 0.0421591C12.4412 0.0191632 12.4068 0.0153306 12.0278 0L12.135 0.0114979C11.9857 0.0459917 11.8173 0.0229958 11.511 0.0421591L11.5225 0.0344938C11.1703 0.0344938 11.0938 0.0421591 11.0172 0.0498243C10.9789 0.053657 10.9445 0.0574896 10.8718 0.0574896C10.799 0.0574896 10.6957 0.0613223 10.5196 0.0843181L10.5617 0.107314C10.5081 0.180134 9.94541 0.160971 9.55113 0.249122C9.6009 0.245289 9.65066 0.245289 9.70042 0.241456C9.48606 0.291281 9.0803 0.302779 8.86211 0.344938C8.81235 0.352603 8.93484 0.318109 8.99991 0.295113C8.4219 0.40626 8.93484 0.352603 8.5176 0.467582C8.43338 0.471415 8.60181 0.383264 8.31854 0.467582C8.17691 0.509741 7.53765 0.81252 7.15869 0.938997C7.2429 0.916001 7.33094 0.893005 7.15103 0.992654C6.87925 1.13829 6.36248 1.2916 6.14812 1.4794C6.11367 1.49473 6.09836 1.49856 6.09453 1.49856C5.8993 1.63271 5.44761 1.91632 5.34426 2.01214C5.10693 2.0543 4.19206 2.92047 4.1576 2.86682L3.6217 3.36123L3.62935 3.34206C3.44561 3.49537 3.35757 3.62568 3.27718 3.71766C3.20063 3.81348 3.15469 3.87863 3.10876 3.94762C3.0322 4.02427 3.07813 3.95912 3.08196 3.94762C2.60347 4.43053 2.59199 4.51102 2.28193 4.9901L2.22068 5.02076C2.1824 5.08591 2.02163 5.27371 1.85703 5.53817C1.77282 5.66848 1.68095 5.81412 1.58908 5.95976C1.49721 6.10923 1.40534 6.2587 1.34792 6.41584C1.34792 6.40818 1.34792 6.39285 1.36706 6.34302C1.29433 6.51549 1.20246 6.70329 1.11059 6.88726C1.01872 7.07506 0.907707 7.25519 0.842633 7.43916C0.697172 7.80326 0.582335 8.1137 0.586163 8.25934C0.532572 8.41648 0.513432 8.58128 0.475153 8.74225C0.643581 8.1252 0.498121 8.84574 0.582335 8.60045C0.578507 8.61195 0.578507 8.62344 0.574679 8.63494C0.555539 8.70393 0.5364 8.76908 0.51726 8.83807C0.46367 9.01054 0.410079 9.12935 0.459842 8.92239L0.478981 8.8764C0.452186 8.75375 0.253134 9.63909 0.233995 9.6161C0.000492121 10.8502 -0.0530986 12.0882 0.050255 13.2648C0.0579108 13.2188 0.0655666 13.1728 0.0808783 13.1268C0.092362 13.2648 0.119157 13.3989 0.134469 13.5331C0.138297 13.6404 0.122985 13.6825 0.0770504 13.3912C0.0732225 13.5484 0.172748 13.8742 0.184232 13.8818C0.253134 14.4529 0.0961899 13.6672 0.122985 13.8435L0.161264 14.0811V14.0236C0.18806 14.1156 0.203371 14.1693 0.218683 14.2383C0.233995 14.3111 0.256962 14.3992 0.302897 14.5679C0.348832 14.7863 0.302897 14.6867 0.325865 14.771C0.322037 14.771 0.329693 14.8017 0.356488 14.9013L0.482809 15.4072L0.467497 15.1964C0.540228 15.4149 0.593818 15.6678 0.567023 15.4264C0.582335 15.6027 0.754591 16.0588 0.911535 16.4957C1.09145 16.9249 1.30581 17.3197 1.34026 17.4232C1.37854 17.496 1.42065 17.565 1.45893 17.634C1.50486 17.703 1.54697 17.772 1.5929 17.8409C1.68095 17.9866 1.77282 18.1361 1.87617 18.3047C1.83023 18.2165 1.83789 18.1476 2.00632 18.4388C1.94124 18.4043 2.00249 18.55 2.12116 18.7186C2.23982 18.8873 2.38911 19.0942 2.44653 19.2207C2.38911 19.1096 2.53457 19.3012 2.67237 19.4775C2.81018 19.6538 2.96712 19.7918 2.85611 19.6346C3.03985 19.8493 2.84463 19.6691 2.97478 19.8378C3.09344 19.9566 3.21594 20.0869 3.33843 20.221C3.39968 20.29 3.46092 20.3628 3.526 20.428C3.5949 20.4931 3.6638 20.5583 3.73653 20.6273C4.02363 20.8917 4.30689 21.1983 4.65523 21.4283C4.67054 21.4283 4.57102 21.3325 4.72414 21.4245L5.04568 21.7311C5.18349 21.8192 5.19497 21.7847 5.4323 21.9687C5.40168 21.938 5.35574 21.8959 5.45144 21.9495C6.79504 22.8924 8.44104 23.4289 10.0564 23.7854C9.83823 23.7317 9.98751 23.7509 10.1559 23.7777C10.0449 23.7547 10.1636 23.7509 10.1445 23.7317C10.3703 23.7777 10.5962 23.8352 10.8258 23.8697C10.956 23.8352 11.5684 23.9042 11.6412 23.8697L11.423 23.8659C11.557 23.8505 11.4842 23.8237 11.3694 23.793C11.5684 23.8045 11.7713 23.8084 11.9742 23.8084C14.2633 23.8084 16.3954 23.1568 18.206 22.0339C18.2099 22.0339 18.2137 22.0339 18.2137 22.0339C18.2328 22.0224 18.2405 22.0147 18.2328 22.0185C19.1018 21.4743 19.8941 20.8227 20.5947 20.083H20.6023C20.6406 20.0409 20.6712 20.0064 20.6904 19.9796C20.7707 19.8914 20.8473 19.8033 20.9239 19.7151C20.8435 19.8454 21.0004 19.7726 21.1727 19.6423C21.1688 19.627 21.1688 19.6308 21.322 19.397C21.2645 19.4775 20.9009 19.8416 21.0425 19.6538C21.1612 19.5158 21.2033 19.4622 21.2416 19.42C21.276 19.3817 21.299 19.3663 21.3564 19.2973C21.2684 19.374 21.4598 19.0942 21.5134 18.9831C21.632 18.8221 21.743 18.6611 21.854 18.4963L21.9115 18.458L21.9459 18.3545C22.2521 17.8793 22.5278 17.3772 22.7613 16.8598C22.8531 16.7256 22.6273 17.2239 22.7459 17.0016C22.6962 17.1281 22.6388 17.2661 22.5813 17.4155C22.5507 17.4883 22.5163 17.565 22.478 17.6455C22.4321 17.7221 22.3861 17.7988 22.3325 17.8793L22.2636 17.9214C22.2789 17.9214 22.4167 17.7183 22.4589 17.6187C22.3899 17.7681 22.1067 18.1016 22.0569 18.2779L22.2215 18.0594C22.0875 18.3009 21.965 18.6343 21.7354 18.8949C21.8579 18.7914 21.7813 18.8298 21.9612 18.6573C21.8043 18.8106 22.4244 17.9023 22.1947 18.1629C22.2828 18.0671 22.344 17.9789 22.4091 17.8793C22.4742 17.7796 22.5469 17.6723 22.6349 17.5343C22.6196 17.5382 22.5622 17.6302 22.6962 17.3695C22.7 17.3542 22.7077 17.3274 22.7153 17.3082C22.7191 17.3005 22.7191 17.2967 22.723 17.289L22.7153 17.3044C22.7191 17.2929 22.7192 17.2929 22.7115 17.3082C22.677 17.3695 22.6464 17.4155 22.6311 17.4347C22.6694 17.2929 22.8684 16.879 22.922 16.7333C23.0024 16.58 22.9029 16.8023 22.9565 16.7256C22.9833 16.6528 23.0101 16.58 23.0254 16.5034C23.0598 16.4919 23.2244 16.0894 23.1019 16.4804L23.2283 16.1354C23.3163 15.94 23.4273 15.664 23.4732 15.4839C23.523 15.3191 23.5536 15.0546 23.5345 15.2041L23.6608 14.6445L23.6685 14.6407C23.7527 14.3686 23.768 14.0773 23.8139 13.7783C23.8484 13.4794 23.9135 13.1766 23.9441 12.8508C23.9479 12.6592 23.9479 12.4637 23.9709 12.1456L23.9977 12.0843C24.0053 11.839 23.9938 11.3485 23.967 11.245C23.9709 11.1836 23.9747 11.0763 23.9747 10.946ZM23.5422 9.0642C23.546 9.08719 23.5766 9.24816 23.6072 9.42447C23.6455 9.59693 23.6378 9.7924 23.6455 9.86522C23.6455 9.87672 23.6455 9.88438 23.6417 9.89205C23.6187 9.75407 23.5919 9.61993 23.5651 9.48195L23.6072 9.46279L23.5536 9.42447C23.523 9.28266 23.4924 9.14468 23.4579 9.00287C23.4847 9.00287 23.5154 9.0182 23.5422 9.0642ZM22.8416 7.07122C22.9067 7.1862 22.9756 7.30118 23.0216 7.42766C22.9756 7.33951 22.8723 7.20153 22.7613 7.04439C22.6656 6.83743 22.5699 6.6343 22.4627 6.43117C22.5775 6.58065 22.7038 6.76461 22.8148 6.97157L22.8416 7.07122ZM20.2234 3.36506C20.1966 3.35739 20.1927 3.37656 20.1889 3.39955C20.1315 3.34206 20.0741 3.28841 20.0128 3.23092C20.0855 3.27691 20.1544 3.3229 20.2234 3.36506ZM14.5542 0.318109C14.6116 0.341105 14.558 0.341105 14.4777 0.337272C14.5121 0.341105 14.5427 0.344938 14.5657 0.34877C14.6116 0.364101 14.6346 0.375599 14.6461 0.383264C14.5734 0.367934 14.5006 0.34877 14.4279 0.33344C14.4432 0.33344 14.4623 0.33344 14.4738 0.337272C14.4432 0.33344 14.4088 0.325775 14.3705 0.321942C14.3207 0.310444 14.2748 0.302779 14.225 0.295113C14.1599 0.27595 14.0987 0.256787 14.0604 0.245289C14.2327 0.264452 14.3973 0.279783 14.5542 0.318109ZM0.345004 14.817L0.33352 14.7365C0.387111 14.9128 0.367972 14.8668 0.345004 14.817ZM21.0081 19.6193C21.0885 19.5235 21.165 19.4277 21.2454 19.3318C21.188 19.42 21.1076 19.5311 21.0081 19.6193ZM23.301 15.8671C23.301 15.8633 23.301 15.8595 23.3048 15.8595C23.3852 15.6717 23.3546 15.7368 23.301 15.8671ZM23.68 14.1999C23.657 14.4222 23.6225 14.4644 23.6149 14.4682C23.6072 14.4682 23.6072 14.4222 23.5996 14.4606C23.4924 14.8668 23.4694 15.0431 23.4465 15.2079C23.4235 15.3689 23.412 15.5184 23.2665 15.8365C23.1402 16.0856 23.1976 15.825 23.1555 15.8748C23.2091 15.7023 23.2665 15.5759 23.3125 15.457C23.3508 15.3382 23.3852 15.2347 23.4158 15.1159L23.324 15.4034C23.3316 15.3536 23.3469 15.2807 23.3622 15.2041C23.4694 14.8323 23.5536 14.4567 23.6264 14.0696C23.6264 14.0735 23.6264 14.0773 23.6264 14.0773C23.6225 14.1539 23.6072 14.2766 23.6264 14.2268L23.6646 13.9048C23.6608 13.8933 23.657 13.901 23.6532 13.9125C23.6838 13.74 23.7068 13.5637 23.7259 13.3912C23.7374 13.5637 23.7182 13.8512 23.68 14.1999ZM23.8101 11.4788C23.8063 11.4136 23.8063 11.3523 23.8024 11.2871C23.8101 11.3485 23.8178 11.4059 23.8254 11.4634C23.8178 11.4558 23.8139 11.4634 23.8101 11.4788Z" fill="#0866FF"/>
<path d="M12.0509 23.9653C11.9399 23.9691 11.9782 23.9921 11.9629 23.9998C12.1505 23.9844 12.0471 23.9614 12.0509 23.9653Z" fill="#0866FF"/>
<path d="M13.8428 23.7623L14.1031 23.6934L13.8734 23.747L13.8428 23.7623Z" fill="#0866FF"/>
<path d="M14.5931 23.5938L14.4668 23.6628C14.8266 23.5631 15.286 23.4252 15.5386 23.3677C15.3702 23.3715 14.9415 23.5286 14.6429 23.5938H14.5931Z" fill="#0866FF"/>
<path d="M16.2275 23.2103C16.2467 23.2065 16.2543 23.2027 16.2658 23.2027C16.3003 23.1912 16.35 23.172 16.4304 23.1414C16.373 23.1452 16.6142 23.0609 16.2275 23.2103Z" fill="#0866FF"/>
<path d="M16.2654 23.203C16.097 23.2643 16.3841 23.1762 16.2654 23.203V23.203Z" fill="#0866FF"/>
<path d="M17.0308 22.8654L16.8203 22.9842C16.8701 22.9727 17.0615 22.8807 16.9926 22.9229C17.2146 22.8079 17.1648 22.8194 17.0308 22.8654Z" fill="#0866FF"/>
<path d="M17.2224 22.7393L17.1152 22.8006C17.1344 22.7929 17.165 22.7776 17.2224 22.7393Z" fill="#0866FF"/>
<path d="M16.8848 22.9234L17.1144 22.7969C17.08 22.8045 17.0723 22.793 17.0073 22.8544C17.0226 22.8352 16.9805 22.8659 16.8848 22.9234Z" fill="#0866FF"/>
<path d="M16.6746 22.9844C16.464 23.0764 16.376 23.1109 16.3951 23.1147C16.4104 23.1109 16.5444 23.0879 16.7473 22.9844C16.6248 23.0342 16.4564 23.084 16.6746 22.9844Z" fill="#0866FF"/>
<path d="M15.2891 23.3868C15.3235 23.3753 15.4077 23.3562 15.4805 23.337C15.5532 23.3178 15.6106 23.2948 15.603 23.291C15.5455 23.3063 15.4881 23.3255 15.4307 23.3332L15.2891 23.3868Z" fill="#0866FF"/>
<path d="M18.3514 22.1758C18.359 22.1605 18.271 22.195 18.248 22.195L18.1025 22.2946C18.1829 22.2525 18.3322 22.1681 18.3514 22.1758Z" fill="#0866FF"/>
<path d="M18.2488 22.1949L18.4669 22.0454C18.2641 22.1642 18.2296 22.1911 18.2488 22.1949Z" fill="#0866FF"/>
<path d="M16.8662 22.8921L17.3141 22.6392L17.2375 22.6737L16.8662 22.8921Z" fill="#0866FF"/>
<path d="M19.0752 21.7117L19.2704 21.5239L19.1862 21.6006L19.0752 21.7117Z" fill="#0866FF"/>
<path d="M19.7644 21.1985C19.8984 21.072 20.0017 20.957 20.0974 20.8535C19.9941 20.9608 19.8754 21.0643 19.7108 21.1908C19.6419 21.2789 19.8448 21.1103 19.7644 21.1985Z" fill="#0866FF"/>
<path d="M18.8418 21.7964C18.8609 21.7887 18.903 21.7772 19.0255 21.6929L18.926 21.735C18.8992 21.7542 18.8686 21.7772 18.8418 21.7964Z" fill="#0866FF"/>
<path d="M18.9219 21.7386C19.0176 21.6696 19.0788 21.6237 19.1056 21.6045C19.0788 21.6198 19.0252 21.6581 18.9219 21.7386Z" fill="#0866FF"/>
<path d="M17.9723 22.2483C17.888 22.3212 18.045 22.2407 17.8574 22.3787C17.9837 22.2867 18.2517 22.1065 17.9723 22.2483Z" fill="#0866FF"/>
<path d="M18.4551 22.0376C18.5355 21.9801 18.6235 21.9265 18.7001 21.8613C18.6235 21.915 18.5393 21.9571 18.4589 22.007C18.4666 22.0108 18.5163 21.9916 18.4551 22.0376Z" fill="#0866FF"/>
<path d="M18.7795 21.8041L18.8025 21.7734L18.6953 21.8616L18.7795 21.8041Z" fill="#0866FF"/>
<path d="M19.8869 20.9838C19.9673 20.8918 20.0668 20.8037 20.174 20.7002C20.0515 20.8037 19.929 20.9148 19.8104 21.0183C19.7989 21.0413 19.7606 21.0988 19.8869 20.9838Z" fill="#0866FF"/>
<path d="M19.4282 21.3629C19.4359 21.3591 19.4435 21.3514 19.4474 21.3438C19.432 21.3514 19.4206 21.3591 19.4282 21.3629Z" fill="#0866FF"/>
<path d="M21.1881 19.6387L21.1689 19.6502V19.6578L21.1881 19.6387Z" fill="#0866FF"/>
<path d="M19.7872 21.0335C19.6953 21.1101 19.6455 21.1638 19.5996 21.2174C19.6647 21.1561 19.7336 21.0909 19.8101 21.022C19.8178 21.0105 19.814 21.0066 19.7872 21.0335Z" fill="#0866FF"/>
<path d="M20.5446 20.3857C20.4987 20.4279 20.4489 20.4777 20.3877 20.5237C20.4413 20.4892 20.537 20.4087 20.5446 20.3857Z" fill="#0866FF"/>
<path d="M19.4841 21.3249L19.4688 21.3364C19.5032 21.3172 19.4994 21.3211 19.4841 21.3249Z" fill="#0866FF"/>
<path d="M19.4846 21.3251C19.5306 21.2868 19.5689 21.2523 19.6033 21.2178C19.5459 21.2638 19.4961 21.3059 19.4502 21.3443C19.4617 21.3366 19.4732 21.3289 19.4846 21.3251Z" fill="#0866FF"/>
<path d="M20.813 20.0411L20.7402 20.1292C20.8321 20.0372 20.901 19.9759 21.0312 19.8609C21.1498 19.7114 21.169 19.677 21.1728 19.6616L20.7938 20.0755L20.813 20.0411Z" fill="#0866FF"/>
<path d="M20.4762 20.3128C20.2466 20.5543 20.3231 20.4891 20.1891 20.6347C20.5834 20.2668 20.0858 20.7497 20.3844 20.5006C20.3078 20.5734 20.2389 20.6386 20.1738 20.6999C20.2466 20.6386 20.3193 20.5773 20.3882 20.5198C20.3844 20.5236 20.3805 20.5236 20.3767 20.5274C20.3576 20.5389 20.3499 20.5428 20.3691 20.5274L20.3767 20.5198C20.3767 20.5159 20.3805 20.5044 20.3882 20.4968C20.5069 20.3971 20.4112 20.4853 20.3767 20.5198C20.3767 20.5236 20.3729 20.5274 20.3729 20.5274C20.5069 20.4048 20.614 20.2591 20.7327 20.125C20.6523 20.2055 20.5643 20.3205 20.3844 20.4968C20.4418 20.4239 20.6064 20.2093 20.4762 20.3128Z" fill="#0866FF"/>
<path d="M18.1978 22.0876L18.2285 22.0646C18.3778 21.9803 18.5692 21.8921 18.6266 21.8691C18.5653 21.8806 18.5079 21.896 18.3854 21.9458C18.3548 21.9688 18.3318 21.9956 18.2246 22.0569C18.1251 22.1068 18.217 22.0454 18.2093 22.0416C18.1443 22.0914 17.9873 22.1987 18.1978 22.0876Z" fill="#0866FF"/>
<path d="M18.6279 21.8687C18.6318 21.8687 18.6394 21.8649 18.6432 21.8649C18.6509 21.861 18.6432 21.8649 18.6279 21.8687Z" fill="#0866FF"/>
<path d="M19.4316 21.2633C19.5503 21.1752 19.6537 21.0678 19.7647 20.9644L19.5809 21.0985L19.6001 21.1023C19.3972 21.2595 19.447 21.2326 19.4316 21.2633Z" fill="#0866FF"/>
<path d="M21.2148 19.6694C21.2646 19.6004 21.3029 19.5161 21.345 19.4395L21.234 19.6081L21.2148 19.6694Z" fill="#0866FF"/>
<path d="M21.5868 19.1708L21.6672 19.0366L21.583 19.1363L21.5868 19.1708Z" fill="#0866FF"/>
<path d="M21.9961 5.28149L22.0037 5.34664C22.0765 5.45779 22.1301 5.54977 22.1684 5.62643C22.088 5.45012 22.0076 5.24316 21.9961 5.28149Z" fill="#0866FF"/>
<path d="M23.8338 13.6557C23.8683 13.4909 23.8951 13.3606 23.9142 13.2456C23.8683 13.4449 23.8223 13.602 23.8338 13.6557Z" fill="#0866FF"/>
<path d="M23.9447 12.7705C23.9409 12.8012 23.937 12.828 23.9332 12.8587C23.9294 12.9813 23.937 13.1039 23.9141 13.2496C23.9447 13.1039 23.9523 12.9353 23.9447 12.7705Z" fill="#0866FF"/>
<path d="M10.1445 23.7891C10.1828 23.7967 10.2517 23.8082 10.3666 23.8197C10.3168 23.8121 10.2287 23.8006 10.1445 23.7891Z" fill="#0866FF"/>
<path d="M22.8078 17.1318C22.7542 17.243 22.8002 17.151 22.8078 17.1318V17.1318Z" fill="#0866FF"/>
<path d="M22.4512 17.6265C22.4588 17.5997 22.4665 17.5805 22.4627 17.5767C22.4627 17.5882 22.4588 17.6035 22.4512 17.6265Z" fill="#0866FF"/>
<path d="M22.7148 17.2967C22.7378 17.2545 22.7646 17.2085 22.7914 17.1587C22.7761 17.1779 22.7531 17.22 22.7148 17.2967Z" fill="#0866FF"/>
<path d="M22.7381 17.2773C22.719 17.3157 22.7037 17.3463 22.6884 17.3732C22.6845 17.3923 22.6922 17.3808 22.7381 17.2773Z" fill="#0866FF"/>
<path d="M22.8073 17.1317C22.8226 17.0973 22.8456 17.0513 22.88 16.9746C22.8494 17.0398 22.8188 17.0973 22.792 17.1547C22.8035 17.1356 22.8073 17.1241 22.8073 17.1317Z" fill="#0866FF"/>
<path d="M22.2031 18.2665L22.3371 18.0327C22.272 18.1439 22.2414 18.1822 22.2031 18.2358C22.2108 18.232 22.2491 18.1937 22.2031 18.2665Z" fill="#0866FF"/>
<path d="M21.9917 18.4272C21.9534 18.4272 21.8922 18.5882 21.7773 18.7339L21.7965 18.707C21.7927 18.7722 21.9037 18.6074 21.9917 18.4272Z" fill="#0866FF"/>
<path d="M21.6475 18.9065C21.6475 18.9334 21.6934 18.8529 21.7508 18.7686C21.7164 18.8145 21.6819 18.8605 21.6475 18.9065Z" fill="#0866FF"/>
<path d="M22.9645 16.756C22.9186 16.8326 22.9683 16.8212 22.9377 16.8595C22.93 16.963 23.1559 16.3037 22.9645 16.756Z" fill="#0866FF"/>
<path d="M22.4516 17.5111C22.4593 17.5111 22.4439 17.5456 22.4248 17.5877C22.5052 17.4229 22.5971 17.2428 22.5856 17.2466L22.4516 17.5111Z" fill="#0866FF"/>
<path d="M22.4282 17.5879C22.3823 17.6722 22.3325 17.7489 22.3096 17.7987C22.3364 17.7489 22.3976 17.6569 22.4282 17.5879Z" fill="#0866FF"/>
<path d="M11.2773 23.9384L11.5262 23.9614L11.3654 23.9346L11.2773 23.9384Z" fill="#0866FF"/>
<path d="M11.7559 23.916L11.8133 23.9582L11.9626 23.9275C11.909 23.9275 11.798 23.9275 11.7559 23.916Z" fill="#0866FF"/>
<path d="M13.2265 7.70361C13.2265 7.72661 13.2227 7.74577 13.2227 7.76877C13.2227 7.73427 13.2265 7.71511 13.2265 7.70361Z" fill="#F9F9F9"/>
<path d="M13.4831 7.48115L13.4907 7.46582C13.4716 7.47732 13.4678 7.48498 13.4831 7.48115Z" fill="#F9F9F9"/>
<path d="M15.1821 4.65295C15.14 4.64529 15.0711 4.63762 14.9678 4.63379L15.1821 4.65295Z" fill="#F9F9F9"/>
<path d="M14.3056 9.25227L14.3975 9.21777C14.252 9.22161 14.3171 9.23694 14.3056 9.25227Z" fill="#F9F9F9"/>
<path d="M13.1952 17.7759L13.1914 17.8027C13.1952 17.8027 13.1952 17.7912 13.1952 17.7759Z" fill="#F9F9F9"/>
<path d="M8.92319 9.45989H8.93085C8.90788 9.45478 8.91171 9.45478 8.92319 9.45989Z" fill="#F9F9F9"/>
<path d="M13.2113 11.9848C13.2075 11.9848 13.2037 11.9848 13.1999 11.981C13.1577 11.9963 13.1769 11.9963 13.2113 11.9848Z" fill="#F9F9F9"/>
<path d="M10.9745 5.20459L10.9668 5.21225C10.9706 5.20842 10.9745 5.20459 10.9745 5.20459Z" fill="#F9F9F9"/>
<path d="M11.2005 5.03223C11.1163 5.13188 11.0589 5.1587 10.9785 5.2047C11.0206 5.20853 11.0666 5.22386 11.1087 5.23152C11.1355 5.16637 11.1661 5.10121 11.2005 5.03223Z" fill="#F9F9F9"/>
<path d="M14.9599 7.48881C15.0058 7.47731 15.0364 7.46582 15.1092 7.45432C15.2699 7.45815 15.3656 7.46965 15.446 7.48881C15.4575 7.45432 15.4728 7.43899 15.4843 7.41982C15.4881 7.16687 15.4728 7.25119 15.4575 7.31251C15.4422 7.37383 15.4231 7.41216 15.4154 7.14771C15.4192 7.06722 15.4192 6.99823 15.4231 6.92925C15.4231 6.87559 15.4231 6.82577 15.4192 6.77594C15.4116 6.67246 15.4001 6.56131 15.3886 6.42334C15.4039 6.26237 15.4192 6.45017 15.4307 6.39268L15.3924 6.25087C15.3924 6.21638 15.4039 6.22787 15.4116 6.23171C15.3963 6.10906 15.3656 6.22021 15.3503 6.03241C15.2967 5.98258 15.4269 5.64148 15.3656 5.40769C15.3809 5.3502 15.3963 5.43452 15.4116 5.41919C15.3733 5.08958 15.3848 5.16623 15.3312 4.81746L15.3465 4.67565L15.1857 4.65649C15.3886 4.69098 15.0517 4.73314 14.8871 4.77147C14.8948 4.7753 14.9025 4.7753 14.9139 4.77913C14.891 4.77913 14.8718 4.77913 14.8489 4.77913C14.8604 4.7753 14.8757 4.7753 14.8871 4.77147L14.8527 4.75997C14.8374 4.76764 14.8221 4.77147 14.8106 4.77913C14.7647 4.77913 14.7149 4.77913 14.6651 4.77913C14.6651 4.7638 14.7034 4.74847 14.7493 4.73314L14.8565 4.7638C14.9254 4.73314 15.002 4.70248 14.9905 4.67565C14.9599 4.67949 14.9254 4.68715 14.8833 4.68715C14.9025 4.67949 14.9139 4.67182 14.9063 4.66799C14.8948 4.66416 14.8642 4.67182 14.8182 4.68715L14.7493 4.63349L14.734 4.65649L14.3474 4.622C14.0718 4.67565 13.8306 4.75614 13.3904 4.7753C13.4976 4.73698 13.4134 4.71015 13.4211 4.66416C13.5397 4.71398 13.7617 4.64499 13.9914 4.65266C13.8727 4.64882 13.8995 4.62583 13.9302 4.61816L13.5244 4.66416C13.5321 4.62583 13.4364 4.63733 13.333 4.622C13.4134 4.69482 13.0268 4.67565 12.8584 4.70631C12.8469 4.67949 12.8851 4.65649 13.0919 4.65649C12.8622 4.60283 12.8048 4.75614 12.5789 4.72931C12.6287 4.72548 12.6555 4.72548 12.6746 4.71015C12.5598 4.73698 12.2765 4.76764 12.3378 4.73314L12.3875 4.72548C12.2191 4.74464 11.9664 4.79447 11.7597 4.87495C11.5492 4.9516 11.3923 5.05125 11.3846 5.08958C11.377 5.08191 11.3923 5.00143 11.4037 4.98226C11.3234 5.05509 11.2506 5.13174 11.1894 5.21989C11.1664 5.24672 11.1434 5.27738 11.1205 5.30804C11.0669 5.34253 11.0171 5.38469 10.9712 5.42302C10.9138 5.39236 10.841 5.36553 10.9827 5.22372C10.9176 5.27355 10.8142 5.3157 10.7109 5.46135C10.7568 5.42685 10.864 5.41919 10.8142 5.47668C10.6305 5.58399 10.6841 5.5495 10.4889 5.7258C10.5501 5.66831 10.5539 5.78712 10.4889 5.89443C10.4889 5.87144 10.4123 5.85994 10.4276 5.81395C10.397 5.92893 10.3587 6.03241 10.3472 6.14356C10.3664 6.06307 10.2898 6.09756 10.2362 6.15889C10.2515 6.14739 10.2209 6.21254 10.1865 6.29303C10.1597 6.37351 10.1291 6.47316 10.1176 6.51532L10.175 6.38884C10.1099 6.56515 10.1214 6.66096 10.1367 6.75294C10.1482 6.84493 10.1635 6.93691 10.1444 7.11321C10.1329 7.07105 10.0487 6.9944 10.018 7.17837C10.0372 7.22819 10.0908 7.33167 10.1405 7.46582C10.1405 7.49264 10.1367 7.51947 10.1367 7.55013C10.1367 7.66128 10.1367 7.76476 10.1367 7.86058C10.0793 7.69194 10.0219 7.50031 9.9989 7.36233C9.97593 7.49648 9.96828 7.40066 9.96445 7.60379C9.94148 7.67278 9.93 7.49648 9.93383 7.43132C9.92234 7.59613 9.92234 7.74177 9.91469 7.8989C9.95297 7.86058 9.95297 8.23618 9.99507 8.21701L9.94148 7.71494C9.99125 7.69577 10.0831 8.00622 10.0755 8.33199C10.0563 8.41631 9.98742 8.27067 9.96828 8.27834C9.98742 8.3205 10.0027 8.58878 9.98742 8.61944L9.96062 8.48147C9.94148 8.66543 10.0257 8.78041 9.97976 8.99887C9.97976 9.0372 9.96062 9.09469 9.94914 9.14068C9.94531 9.15218 9.94531 9.16368 9.94148 9.17517C9.94148 9.17901 9.93765 9.18284 9.93765 9.18667C9.93765 9.19434 9.93765 9.19817 9.94531 9.19817C9.97211 9.1905 10.0334 9.13301 10.0908 9.12535C10.1023 9.12152 10.1137 9.12535 10.1252 9.12535C10.1252 9.24416 10.1252 9.32848 10.1252 9.38214C10.1176 9.37447 10.1137 9.36297 10.1061 9.35531V9.4013L10.1252 9.41663C10.1252 9.45112 10.1252 9.46262 10.1252 9.46262H9.91086C9.89555 9.44346 9.92617 9.4243 9.94531 9.40513C9.97593 9.3783 9.98359 9.35531 9.93765 9.33615C9.94531 9.35148 9.91086 9.36681 9.89172 9.37064C9.86492 9.36297 9.86875 9.35531 9.86493 9.34764C9.85344 9.33998 9.87258 9.33231 9.77688 9.33615C9.75009 9.38597 9.42471 9.33231 9.6965 9.3783C9.52807 9.39363 9.51658 9.36681 9.32136 9.37064C9.36347 9.39363 9.2716 9.43579 9.15676 9.46262H8.9424C8.93857 9.46262 8.93474 9.45879 8.93091 9.45879C8.81225 9.45496 8.7089 9.45112 8.61703 9.45112C8.6132 9.54694 8.60937 9.63509 8.60554 9.72707C8.60171 9.81906 8.59789 9.90721 8.59789 10.0184C8.5864 10.049 8.57109 10.2023 8.54812 10.1372C8.55578 10.1832 8.57492 10.2253 8.57492 10.325C8.53281 10.5166 8.56726 10.1027 8.51367 10.2483C8.5443 10.2598 8.55578 10.5051 8.57109 10.6469C8.61703 10.6047 8.57875 10.3211 8.55961 10.1793C8.58257 10.1793 8.60171 10.21 8.62468 10.2636V11.2985C8.6132 11.4288 8.6132 11.6664 8.6132 11.9308C8.81608 11.9308 9.01896 11.9347 9.16442 11.95C9.21418 11.9423 9.28691 11.9308 9.30605 11.9193H10.1252V12.4214C10.1214 12.4176 10.1137 12.4176 10.1099 12.4214L10.1252 12.5901V12.6092C10.1176 12.6016 10.1061 12.5517 10.0984 12.5977C10.1099 12.6016 10.1176 12.6284 10.1252 12.6667V12.9465C10.1252 12.9503 10.1252 12.958 10.1214 12.9618C10.1214 12.9657 10.1214 12.9657 10.1252 12.9695V13.2033C10.1252 13.2109 10.1214 13.2224 10.1214 13.2339C10.1252 13.2493 10.1252 13.2646 10.1252 13.2799V19.1209H10.5348C10.6075 19.1515 10.6879 19.1822 10.6764 19.2129C10.8717 19.1477 11.1894 19.3087 11.5109 19.2167C11.5798 19.232 11.4497 19.2397 11.488 19.255C11.5683 19.2244 11.6679 19.2167 11.8478 19.232L11.8286 19.2397C12.0621 19.2359 12.2382 19.2397 12.4143 19.2474C12.5024 19.2512 12.5904 19.255 12.6899 19.2627C12.8354 19.2665 12.9923 19.2704 13.1761 19.278C13.1761 19.232 13.1799 19.1669 13.1799 19.1017C13.1684 19.117 13.1569 19.1285 13.1454 19.1439C13.1493 18.9676 13.1608 18.9331 13.1684 18.8449C13.1148 18.6341 13.1646 19.3547 13.1072 19.1285C13.1263 19.0902 13.134 18.9867 13.1378 18.8603C13.1416 18.7529 13.1416 18.6571 13.1454 18.5498C13.1454 18.339 13.1493 18.1359 13.1914 18.0784C13.1914 17.8906 13.1493 18.1359 13.1493 17.9443L13.1722 17.8944L13.1454 17.8446C13.1493 17.722 13.1761 17.6568 13.1952 17.653C13.1914 17.6836 13.199 17.7373 13.2029 17.7718C13.2297 17.6108 13.1952 17.3157 13.2029 17.262L13.1876 17.446C13.1684 16.9286 13.1952 16.2962 13.1493 15.798L13.134 15.8363C13.1033 15.453 13.1531 15.5297 13.1378 15.1119L13.1416 15.1273C13.1263 15.0429 13.1148 14.9318 13.1186 14.8168C13.1378 14.9241 13.1569 14.6175 13.1799 14.7555C13.1454 14.3416 13.1531 14.5524 13.0919 14.2764L13.1186 14.2151C13.0919 14.1231 13.0804 14.1154 13.0727 13.9047C13.0957 14.0771 13.1148 13.7705 13.1454 13.9621C13.2067 13.5214 13.0842 13.3106 13.1722 13.1075C13.0957 12.9043 13.1301 13.4869 13.1148 13.3757C13.088 13.4716 13.0574 13.2109 13.0651 13.073C13.0651 12.9312 13.1646 12.8353 13.1608 12.4827C13.1608 12.5172 13.1646 12.5211 13.1646 12.5556C13.1761 12.4904 13.1684 12.4253 13.1608 12.3563C13.1569 12.3218 13.1569 12.2873 13.1569 12.249C13.1569 12.2145 13.1608 12.1685 13.1684 12.157C13.1225 12.0956 13.1722 12.0612 13.111 11.9922L13.1263 12.2183C13.1225 12.157 13.1148 12.1416 13.1033 12.0956C13.0957 12.0535 13.0842 12.0075 13.0765 11.95C13.1416 11.9385 13.222 11.9347 13.3407 11.95C13.31 11.9615 13.2488 11.9768 13.2105 11.9845C13.245 11.9922 13.2679 11.9922 13.2947 11.9883C13.333 11.9845 13.3789 11.9845 13.4249 11.9922C13.4172 12.0152 13.3483 12.0228 13.2909 12.0228C13.2526 12.0267 13.199 12.0228 13.1569 12.0267C13.1608 12.0612 13.1646 12.0956 13.1761 12.1225C13.1876 12.111 13.1799 12.0803 13.1761 12.0458C13.2067 12.0382 13.2335 12.0305 13.2335 12.0688C13.2335 12.0497 13.2488 12.0382 13.2679 12.0343C13.2794 12.0343 13.2871 12.0305 13.2986 12.0305C13.3215 12.0305 13.3445 12.0305 13.3675 12.0343C13.467 12.0382 13.578 12.0458 13.6967 12.0152L13.6814 12.0497C13.7196 12.0458 13.7962 12.0267 13.8651 12.0267L13.7388 12.0727C13.9302 12.0343 14.1101 12.1071 14.2976 12.0841C13.911 12.0841 14.2096 12.042 14.045 12.0152C14.2862 11.9922 14.3551 12.0152 14.4278 12.042C14.4661 12.0573 14.5044 12.0688 14.5694 12.0803C14.6001 12.0841 14.6383 12.088 14.6843 12.0918C14.7072 12.0918 14.734 12.0918 14.7647 12.0918C14.8144 12.0918 14.868 12.0918 14.9254 12.0918C14.7532 12.0956 14.5924 12.0688 14.6957 12.0535C14.7647 12.0573 14.8489 12.065 14.9254 12.0688C15.0173 12.0765 15.1053 12.0841 15.1704 12.0918C15.1896 12.0918 15.2049 12.0918 15.2163 12.0918C15.2355 11.8235 15.224 11.858 15.2087 11.9155C15.1934 11.973 15.1742 12.0535 15.1742 11.9308C15.201 11.8542 15.2049 11.7737 15.201 11.6971C15.1972 11.6089 15.1819 11.5782 15.1819 11.4939L15.2163 11.4978C15.2738 11.0953 15.1513 11.3828 15.2125 11.0225L15.247 11.1796L15.2508 10.988L15.2891 11.0302C15.2776 10.8232 15.2891 10.7581 15.3197 10.5588C15.2891 10.6047 15.2585 10.5281 15.2699 10.348C15.3006 10.2292 15.2967 10.4208 15.3159 10.164C15.335 10.2215 15.3542 10.2866 15.312 10.394C15.3235 10.4055 15.3312 10.4514 15.3388 10.4668C15.3733 10.3365 15.3733 10.1372 15.3809 10.0452C15.3771 10.0797 15.3695 10.1218 15.3656 10.1448L15.3503 9.76923C15.3733 9.67725 15.3771 9.76157 15.3809 9.81139C15.3848 9.71558 15.3771 9.61976 15.3886 9.46262C15.4154 9.48945 15.4498 9.45496 15.4384 9.73091L15.4537 9.26332L15.3235 9.27099C15.3006 9.25949 15.0326 9.2365 15.1168 9.225C14.8986 9.21733 14.8182 9.22883 14.6843 9.24416C14.5579 9.25949 14.4201 9.27099 14.2938 9.25949C14.2785 9.26332 14.2517 9.27099 14.1981 9.27482C13.957 9.26716 13.7426 9.23266 13.4517 9.27099C13.3981 9.25183 13.3368 9.2365 13.2947 9.21733C13.2756 9.225 13.2794 9.24033 13.2871 9.25566C13.2947 9.27482 13.3139 9.29015 13.222 9.30165C13.1914 9.30548 13.1722 9.30548 13.1646 9.30165C13.1761 9.26333 13.2143 9.25566 13.222 9.225C13.2143 9.22117 13.2067 9.21733 13.199 9.20584C13.1952 9.202 13.1914 9.19434 13.1876 9.18667L13.1837 9.17134L13.1799 9.13302C13.1684 9.02953 13.1646 8.91072 13.1876 8.78808C13.199 8.86856 13.1914 8.93372 13.1952 9.00654L13.2258 8.81874C13.2756 9.04486 13.2565 9.20583 13.2986 9.02953C13.199 9.00271 13.2871 8.30516 13.1876 8.28217L13.2105 8.15952C13.2105 8.19402 13.2143 8.20168 13.2143 8.23618C13.2679 7.99855 13.1301 8.05604 13.1722 7.77626C13.1952 7.68428 13.2297 7.63828 13.222 7.69577C13.2297 7.63445 13.245 7.58463 13.2718 7.54247C13.3024 7.51564 13.3024 7.5348 13.2794 7.56163C13.3177 7.50798 13.3943 7.47348 13.4938 7.45432V7.45815C13.5321 7.43515 13.6392 7.40449 13.6928 7.393C13.7847 7.40833 13.6469 7.40449 13.6699 7.41599L13.8689 7.393C13.9531 7.41982 13.7809 7.44282 13.6469 7.44282C13.8306 7.54247 13.8115 7.41599 14.2173 7.47731L14.0259 7.48881C14.1484 7.5463 14.2976 7.52714 14.512 7.56163C14.4622 7.54247 14.0833 7.46965 14.3015 7.44665C14.3627 7.45432 14.4431 7.45815 14.5618 7.43899C14.5618 7.47348 14.6766 7.46582 14.8221 7.46582L14.8106 7.51181C14.8948 7.50798 14.9254 7.50031 14.9599 7.48881ZM14.0986 7.46198C14.1598 7.41982 14.2058 7.43899 14.2976 7.45049C14.2441 7.45815 14.1369 7.48115 14.0986 7.46198ZM14.4737 4.69482C14.512 4.68332 14.5771 4.68715 14.646 4.70248C14.5924 4.70631 14.535 4.70631 14.4737 4.69482Z" fill="#F9F9F9"/>
<path d="M14.9531 4.64893C14.9761 4.65659 14.9799 4.66042 14.9837 4.66809C15.0144 4.66042 15.0144 4.65276 14.9531 4.64893Z" fill="#F9F9F9"/>
<path d="M14.29 9.25962H14.2977C14.3015 9.25579 14.3053 9.25579 14.3053 9.25195L14.29 9.25962Z" fill="#F9F9F9"/>
<path d="M9.9382 9.33655C9.93437 9.32888 9.91523 9.32122 9.87695 9.31738C9.90375 9.32505 9.92289 9.32888 9.9382 9.33655Z" fill="#F9F9F9"/>
<path d="M9.87305 11.9194L10.0453 11.9309L9.99937 11.9233L9.87305 11.9194Z" fill="#F9F9F9"/>
<path d="M8.55625 11.3791C8.56391 11.3254 8.57156 11.3216 8.58304 11.2948L8.53711 11.2871L8.55625 11.3791Z" fill="#F9F9F9"/>
<path d="M8.50977 10.7733C8.52125 10.7924 8.53273 10.9879 8.54422 10.8077C8.53273 10.7886 8.50977 10.5241 8.50977 10.7733Z" fill="#F9F9F9"/>
<path d="M9.98024 7.02113C9.99173 7.07862 10.0185 6.84483 10.0262 6.90615C10.03 6.76051 10.0606 6.68385 9.99555 6.74134C9.93048 6.9828 10.03 6.81033 9.98024 7.02113Z" fill="#F9F9F9"/>
<path d="M10.0264 6.90625C10.0264 6.92925 10.0302 6.95224 10.0302 6.9829C10.0302 6.94074 10.0264 6.92158 10.0264 6.90625Z" fill="#F9F9F9"/>
<path d="M14.723 7.53877C14.7 7.52727 14.6656 7.52344 14.5967 7.52344L14.7115 7.55027L14.723 7.53877Z" fill="#F9F9F9"/>
<path d="M13.2452 7.86081L13.249 7.83398L13.1992 7.88381L13.2452 7.86081Z" fill="#F9F9F9"/>
<path d="M13.2763 9.20227C13.2725 9.20993 13.2725 9.2176 13.2955 9.18694C13.2955 9.18694 13.2955 9.18694 13.2916 9.18694C13.2878 9.18694 13.284 9.18694 13.2878 9.18311C13.2916 9.18311 13.2801 9.19077 13.2763 9.20227Z" fill="#F9F9F9"/>
</svg>
