<svg width="24" height="24" viewBox="0 0 24 24" fill="none" xmlns="http://www.w3.org/2000/svg">
<path d="M12.0578 23.9653C11.9467 23.9691 11.985 23.9921 11.9697 23.9998C12.1574 23.9844 12.054 23.9614 12.0578 23.9653Z" fill="#F9F9F9"/>
<path d="M13.8506 23.7624L14.111 23.6934L13.8812 23.747L13.8506 23.7624Z" fill="#F9F9F9"/>
<path d="M14.5971 23.5938L14.4707 23.6628C14.8306 23.5632 15.2901 23.4252 15.5429 23.3677C15.3744 23.3715 14.9455 23.5287 14.6468 23.5938H14.5971Z" fill="#F9F9F9"/>
<path d="M16.2354 23.2104C16.2545 23.2065 16.2622 23.2027 16.2736 23.2027C16.3081 23.1912 16.3579 23.172 16.4383 23.1414C16.3809 23.1452 16.6183 23.0609 16.2354 23.2104Z" fill="#F9F9F9"/>
<path d="M16.2744 23.2025C16.102 23.2638 16.3892 23.1757 16.2744 23.2025V23.2025Z" fill="#F9F9F9"/>
<path d="M17.0407 22.8654L16.8301 22.9842C16.8799 22.9727 17.0713 22.8807 17.0024 22.9229C17.2245 22.8079 17.1747 22.8194 17.0407 22.8654Z" fill="#F9F9F9"/>
<path d="M17.2312 22.7388L17.124 22.8001C17.1432 22.7924 17.1738 22.7771 17.2312 22.7388Z" fill="#F9F9F9"/>
<path d="M16.8906 22.9229L17.1204 22.7964C17.0859 22.8041 17.0783 22.7926 17.0132 22.8539C17.0285 22.8347 16.9902 22.8654 16.8906 22.9229Z" fill="#F9F9F9"/>
<path d="M16.6844 22.9844C16.4738 23.0764 16.3858 23.1109 16.4049 23.1147C16.4202 23.1109 16.5542 23.0879 16.7572 22.9844C16.6347 23.0342 16.4662 23.084 16.6844 22.9844Z" fill="#F9F9F9"/>
<path d="M15.2979 23.3868C15.3323 23.3753 15.4166 23.3562 15.4893 23.337C15.5621 23.3178 15.6195 23.2948 15.6118 23.291C15.5544 23.3063 15.497 23.3255 15.4395 23.3332L15.2979 23.3868Z" fill="#F9F9F9"/>
<path d="M18.3612 22.1753C18.3689 22.16 18.2808 22.1945 18.2578 22.1945L18.1123 22.2941C18.1927 22.252 18.3421 22.1676 18.3612 22.1753Z" fill="#F9F9F9"/>
<path d="M18.2575 22.1944L18.4758 22.0449C18.2729 22.1638 18.2384 22.1906 18.2575 22.1944Z" fill="#F9F9F9"/>
<path d="M16.8711 22.8922L17.3229 22.6392L17.2464 22.6737L16.8711 22.8922Z" fill="#F9F9F9"/>
<path d="M19.085 21.7113L19.2803 21.5234L19.1922 21.6001L19.085 21.7113Z" fill="#F9F9F9"/>
<path d="M19.7742 21.198C19.9082 21.0715 20.0116 20.9565 20.1073 20.853C20.004 20.9604 19.8852 21.0639 19.7206 21.1904C19.6517 21.2785 19.8546 21.1099 19.7742 21.198Z" fill="#F9F9F9"/>
<path d="M18.8516 21.7959C18.8707 21.7882 18.9128 21.7767 19.0354 21.6924L18.9358 21.7345C18.909 21.7537 18.8784 21.7767 18.8516 21.7959Z" fill="#F9F9F9"/>
<path d="M18.9277 21.7387C19.0235 21.6697 19.0847 21.6237 19.1115 21.6045C19.0886 21.6198 19.035 21.6582 18.9277 21.7387Z" fill="#F9F9F9"/>
<path d="M17.9821 22.2484C17.8978 22.3212 18.0548 22.2407 17.8672 22.3787C17.9935 22.2867 18.2616 22.1065 17.9821 22.2484Z" fill="#F9F9F9"/>
<path d="M18.4648 22.0372C18.5453 21.9797 18.6333 21.926 18.7099 21.8608C18.6333 21.9145 18.5491 21.9567 18.4687 22.0065C18.4763 22.0103 18.5261 21.9912 18.4648 22.0372Z" fill="#F9F9F9"/>
<path d="M18.7903 21.8036L18.8133 21.7729L18.7061 21.8611L18.7903 21.8036Z" fill="#F9F9F9"/>
<path d="M19.8922 20.9834C19.9726 20.8914 20.0722 20.8032 20.1794 20.6997C20.0568 20.8032 19.9343 20.9144 19.8156 21.0179C19.8079 21.0409 19.7658 21.0984 19.8922 20.9834Z" fill="#F9F9F9"/>
<path d="M19.437 21.3629C19.4447 21.3591 19.4523 21.3514 19.4561 21.3438C19.4408 21.3514 19.4294 21.3591 19.437 21.3629Z" fill="#F9F9F9"/>
<path d="M21.1988 19.6377L21.1797 19.6492V19.6569L21.1988 19.6377Z" fill="#F9F9F9"/>
<path d="M19.797 21.033C19.7051 21.1096 19.6553 21.1633 19.6094 21.217C19.6745 21.1556 19.7434 21.0905 19.82 21.0215C19.8238 21.01 19.8238 21.0061 19.797 21.033Z" fill="#F9F9F9"/>
<path d="M20.5554 20.3853C20.5095 20.4274 20.4597 20.4773 20.3984 20.5233C20.452 20.4888 20.5478 20.4083 20.5554 20.3853Z" fill="#F9F9F9"/>
<path d="M19.4948 21.3244L19.4795 21.3359C19.514 21.3168 19.5101 21.3206 19.4948 21.3244Z" fill="#F9F9F9"/>
<path d="M19.4944 21.3241C19.5404 21.282 19.5748 21.2513 19.6131 21.2168C19.5557 21.2628 19.5059 21.305 19.46 21.3433C19.4676 21.3356 19.4829 21.328 19.4944 21.3241Z" fill="#F9F9F9"/>
<path d="M20.8228 20.0401L20.75 20.1283C20.8419 20.0363 20.9108 19.975 21.041 19.86C21.1597 19.7105 21.1789 19.676 21.1827 19.6606L20.8036 20.0746L20.8228 20.0401Z" fill="#F9F9F9"/>
<path d="M20.4861 20.3123C20.2564 20.5538 20.3329 20.4887 20.1989 20.6343C20.5933 20.2663 20.0955 20.7493 20.3942 20.5002C20.3176 20.573 20.2487 20.6382 20.1836 20.6995C20.2563 20.6382 20.3291 20.5768 20.398 20.5193C20.3942 20.5232 20.3904 20.5232 20.3865 20.527C20.3674 20.5385 20.3597 20.5423 20.3789 20.527L20.3865 20.5193C20.3865 20.5155 20.3904 20.504 20.398 20.4963C20.5167 20.3967 20.421 20.4848 20.3865 20.5193C20.3865 20.5232 20.3827 20.527 20.3827 20.527C20.5167 20.4043 20.624 20.2587 20.7427 20.1245C20.6622 20.205 20.5742 20.32 20.3942 20.4963C20.4516 20.4235 20.6163 20.2088 20.4861 20.3123Z" fill="#F9F9F9"/>
<path d="M18.6367 21.8687C18.6405 21.8687 18.6482 21.8649 18.652 21.8649C18.6597 21.861 18.652 21.8649 18.6367 21.8687Z" fill="#F9F9F9"/>
<path d="M18.2076 22.0871L18.2383 22.0641C18.3876 21.9798 18.5791 21.8917 18.6365 21.8687C18.5753 21.8802 18.5178 21.8955 18.3953 21.9453C18.3646 21.9683 18.3417 21.9952 18.2344 22.0565C18.1349 22.1063 18.2268 22.045 18.2191 22.0411C18.154 22.091 17.997 22.1983 18.2076 22.0871Z" fill="#F9F9F9"/>
<path d="M19.4404 21.2629C19.5591 21.1747 19.6663 21.0674 19.7736 20.9639L19.5898 21.098L19.6089 21.1019C19.406 21.259 19.4557 21.2322 19.4404 21.2629Z" fill="#F9F9F9"/>
<path d="M21.2256 19.6685C21.2754 19.5995 21.3137 19.5151 21.3558 19.4385L21.2447 19.6071L21.2256 19.6685Z" fill="#F9F9F9"/>
<path d="M21.5976 19.1703L21.678 19.0361L21.5938 19.1358L21.5976 19.1703Z" fill="#F9F9F9"/>
<path d="M22.0059 5.27856L22.0135 5.34372C22.0863 5.45489 22.1399 5.54689 22.1782 5.62355C22.0978 5.44722 22.0173 5.24023 22.0059 5.27856Z" fill="#F9F9F9"/>
<path d="M23.8446 13.6538C23.8791 13.489 23.9059 13.3586 23.925 13.2437C23.8791 13.443 23.8293 13.6001 23.8446 13.6538Z" fill="#F9F9F9"/>
<path d="M6.18412 1.42236C6.11903 1.46836 6.09223 1.49136 6.09606 1.4952C6.16499 1.4492 6.20327 1.42236 6.18412 1.42236Z" fill="#F9F9F9"/>
<path d="M23.9554 12.7686C23.9516 12.7992 23.9478 12.8261 23.9439 12.8567C23.9401 12.9794 23.9478 13.102 23.9248 13.2477C23.9554 13.102 23.9631 12.9334 23.9554 12.7686Z" fill="#F9F9F9"/>
<path d="M10.1514 23.7891C10.1897 23.7967 10.2586 23.8082 10.3735 23.8197C10.3237 23.8121 10.2356 23.8006 10.1514 23.7891Z" fill="#F9F9F9"/>
<path d="M22.8176 17.1309C22.764 17.242 22.81 17.15 22.8176 17.1309V17.1309Z" fill="#F9F9F9"/>
<path d="M22.4629 17.6255C22.4705 17.5987 22.4782 17.5795 22.4744 17.5757C22.4744 17.5872 22.4705 17.6025 22.4629 17.6255Z" fill="#F9F9F9"/>
<path d="M22.7266 17.2957C22.7495 17.2535 22.7763 17.2075 22.8031 17.1577C22.7878 17.1769 22.7649 17.219 22.7266 17.2957Z" fill="#F9F9F9"/>
<path d="M22.7489 17.2764C22.7297 17.3147 22.7144 17.3454 22.6991 17.3722C22.6953 17.3914 22.7029 17.3799 22.7489 17.2764Z" fill="#F9F9F9"/>
<path d="M22.8181 17.1308C22.8334 17.0963 22.8563 17.0503 22.8908 16.9736C22.8602 17.0388 22.8295 17.0963 22.8027 17.1538C22.8142 17.1346 22.8181 17.1231 22.8181 17.1308Z" fill="#F9F9F9"/>
<path d="M23.9862 10.9439C23.9823 10.8788 23.9823 10.8059 23.9785 10.7331C23.9709 10.6603 23.9555 10.5798 23.9441 10.5031C23.8943 10.1888 23.833 9.85529 23.8062 9.64063L23.7717 9.62913C23.722 9.3378 23.6262 9.06564 23.5267 8.71299L23.5037 8.74365C23.4233 8.43699 23.2778 7.9655 23.1055 7.49401C23.1284 7.52084 23.1667 7.64351 23.1935 7.72784C23.1553 7.58218 23.1093 7.43651 23.0557 7.29085C22.9944 7.14902 22.9178 7.01102 22.8451 6.87686C22.6919 6.60853 22.5656 6.33253 22.443 6.09487C22.3626 5.98371 22.3167 5.89938 22.2746 5.81504C22.2822 5.82654 22.286 5.83421 22.2937 5.84188C22.286 5.83038 22.2745 5.81121 22.2669 5.79588C22.2401 5.74221 22.2133 5.68471 22.1826 5.62722C22.2056 5.68088 22.2286 5.72688 22.2516 5.76905C22.198 5.68088 22.1137 5.54672 22.0256 5.42022L22.018 5.34739C22.0103 5.33589 22.0065 5.32822 21.9989 5.31672C21.9299 5.17873 21.9223 5.22089 21.9452 5.30139C21.9031 5.23622 21.8495 5.18639 21.8151 5.14423C21.7806 5.01773 21.5585 4.8299 21.5011 4.66507C21.4589 4.63057 21.3402 4.47724 21.2177 4.33158C21.0837 4.19358 20.9458 4.06325 20.8999 4.05175C20.8999 4.04408 20.8731 4.00575 20.9305 4.06708C20.8195 3.93675 20.7084 3.80642 20.5935 3.69909L20.5706 3.61859L20.4251 3.49593L20.2681 3.3886C20.1149 3.21993 20.0536 3.14327 20.2413 3.27743C19.8047 2.94394 19.9043 2.9861 19.5252 2.71394L19.5597 2.71011C19.4257 2.61045 19.1921 2.47628 19.127 2.40345C18.8781 2.11212 17.6106 1.36081 16.7491 0.946814C16.818 1.02348 16.7223 0.962147 16.5997 0.896981C16.4734 0.839482 16.3202 0.770484 16.2934 0.78965C16.2475 0.755151 16.1249 0.697652 16.2781 0.739818C15.8109 0.594154 15.6003 0.444657 15.2557 0.417825C15.2059 0.387159 15.3629 0.417825 15.317 0.398658C15.2787 0.390992 15.1638 0.375659 15.114 0.352659C15.0681 0.32966 15.1868 0.356493 15.2634 0.367992C14.7771 0.245328 14.7158 0.283661 14.6698 0.325827C14.5511 0.283661 14.4592 0.252995 14.375 0.233828C14.2908 0.222329 14.2104 0.218495 14.1185 0.222329C14.0342 0.191663 13.8925 0.15333 14.1989 0.195496C14.0265 0.168663 13.1497 0.00383326 13.1305 0.0536655C13.0769 0.0421658 12.8893 0.0383325 12.8433 0.0421658C12.4528 0.0191663 12.4183 0.015333 12.0392 0L12.1464 0.0114998C11.9971 0.045999 11.8286 0.0229995 11.5223 0.0421658L11.5299 0.0383325C11.1777 0.0383325 11.1011 0.045999 11.0245 0.0536655C10.9862 0.0574988 10.9517 0.0613321 10.879 0.0613321C10.8062 0.0613321 10.7028 0.0651653 10.5267 0.0881648L10.5688 0.111164C10.5152 0.183996 9.95233 0.16483 9.55793 0.252995C9.60771 0.249161 9.65749 0.249161 9.70344 0.245328C9.489 0.295161 9.08311 0.30666 8.86485 0.348826C8.81507 0.356493 8.93761 0.321993 9.00271 0.298994C8.4245 0.410158 8.93761 0.356493 8.52023 0.47149C8.43599 0.475323 8.60448 0.387159 8.32112 0.47149C8.17944 0.513656 7.53997 0.816483 7.16088 0.94298C7.24513 0.919981 7.33319 0.896981 7.15322 0.996646C6.88135 1.14231 6.36442 1.29564 6.14998 1.48347C6.11552 1.4988 6.10021 1.50264 6.09638 1.50264C5.90109 1.6368 5.44925 1.92046 5.34586 2.01629C5.10845 2.05846 4.19328 2.92477 4.15882 2.87111L3.62274 3.3656L3.63041 3.34643C3.45044 3.49593 3.35853 3.62626 3.28195 3.71826C3.20537 3.81409 3.15942 3.87925 3.11347 3.94825C3.03688 4.02492 3.08283 3.95975 3.08666 3.94825C2.60802 4.43124 2.59653 4.51174 2.28637 4.9909L2.2251 5.02156C2.18681 5.08673 2.02598 5.27456 1.86133 5.53905C1.77709 5.66938 1.68519 5.81504 1.59329 5.96071C1.50139 6.11021 1.40949 6.2597 1.35206 6.41687C1.35206 6.4092 1.35205 6.39387 1.3712 6.34403C1.29844 6.51653 1.20655 6.70436 1.11465 6.88836C1.02275 7.07619 0.9117 7.25635 0.846604 7.44034C0.701096 7.8045 0.586228 8.115 0.590057 8.26066C0.536449 8.41782 0.5173 8.58265 0.479009 8.74365C0.647491 8.1265 0.501983 8.84715 0.586224 8.60182C0.582395 8.61332 0.582399 8.62482 0.57857 8.63632C0.559425 8.70532 0.540269 8.77048 0.521124 8.83948C0.467516 9.01198 0.41391 9.13081 0.463689 8.92381L0.482842 8.87782C0.456037 8.75515 0.256916 9.64063 0.23777 9.61763C0.000362689 10.8558 -0.0532417 12.0939 0.0501454 13.2707C0.0578037 13.2247 0.0654569 13.1787 0.0807735 13.1327C0.0922609 13.2707 0.119071 13.4049 0.134387 13.5391C0.142046 13.6464 0.119073 13.6885 0.0769523 13.3972C0.0731231 13.5544 0.172681 13.8802 0.184168 13.8879C0.253093 14.459 0.0960962 13.6732 0.1229 13.8495L0.161194 14.0872L0.157361 14.0335C0.184165 14.1255 0.19948 14.1792 0.214796 14.2482C0.230113 14.321 0.253088 14.4092 0.299038 14.5779C0.344988 14.7964 0.299037 14.6967 0.322012 14.781C0.318183 14.781 0.325848 14.8117 0.352652 14.9114L0.479009 15.4173L0.459868 15.2065C0.532621 15.425 0.586222 15.678 0.559418 15.4365C0.574734 15.6128 0.747044 16.069 0.904039 16.506C1.08401 16.9353 1.29845 17.3301 1.33291 17.4336C1.37121 17.5065 1.41333 17.5755 1.45162 17.6445C1.49757 17.7135 1.53968 17.7825 1.58563 17.8515C1.6737 17.9971 1.76561 18.1466 1.86899 18.3153C1.82304 18.2271 1.8307 18.1581 1.99918 18.4494C1.93409 18.4149 1.99535 18.5606 2.11405 18.7293C2.23276 18.8979 2.3821 19.1049 2.43953 19.2314C2.3821 19.1203 2.5276 19.3119 2.66545 19.4883C2.8033 19.6646 2.9603 19.8026 2.84926 19.6454C3.03305 19.8601 2.83777 19.6799 2.96796 19.8486C3.08666 19.9674 3.2092 20.0977 3.33173 20.2319C3.393 20.3009 3.45426 20.3737 3.51936 20.4389C3.58828 20.5041 3.6572 20.5692 3.72996 20.6382C4.01714 20.9027 4.3005 21.2094 4.64895 21.4394C4.66427 21.4394 4.56472 21.3436 4.71788 21.4356L5.03953 21.7422C5.17738 21.8304 5.18887 21.7959 5.42628 21.9799C5.39565 21.9492 5.34969 21.907 5.44542 21.9607C6.78945 22.9037 8.43599 23.4403 10.0519 23.7968C9.83363 23.7432 9.98297 23.7623 10.1515 23.7892C10.0404 23.7662 10.1591 23.7623 10.14 23.7432C10.3659 23.7892 10.5918 23.8467 10.8216 23.8812C10.9517 23.8467 11.5644 23.9157 11.6372 23.8812L11.4189 23.8773C11.5529 23.862 11.4802 23.8352 11.3653 23.8045C11.5644 23.816 11.7674 23.8198 11.9703 23.8198C14.2601 23.8198 16.393 23.1682 18.2042 22.045C18.208 22.045 18.2118 22.045 18.2118 22.045C18.2271 22.0335 18.2386 22.0259 18.231 22.0297C19.1002 21.4854 19.8928 20.8337 20.5935 20.0939H20.6012C20.6395 20.0517 20.6701 20.0172 20.6893 19.9904C20.7697 19.9023 20.8463 19.8141 20.9267 19.7259C20.8463 19.8563 21.0033 19.7834 21.1756 19.6531C21.1717 19.6378 21.1718 19.6416 21.3249 19.4078C21.2675 19.4844 20.9037 19.8524 21.0454 19.6646C21.1641 19.5266 21.21 19.4729 21.2445 19.4308C21.279 19.3924 21.3019 19.3771 21.3594 19.3081C21.2713 19.3848 21.4628 19.1049 21.5164 18.9938C21.6351 18.8366 21.7461 18.6718 21.8572 18.5069L21.9146 18.4686L21.9491 18.3651C22.2554 17.8898 22.5311 17.3876 22.7647 16.8701C22.8566 16.736 22.6307 17.2343 22.7494 17.012C22.6996 17.1385 22.6422 17.2765 22.5847 17.426C22.5541 17.4988 22.5196 17.5755 22.4813 17.656C22.4354 17.7326 22.3894 17.8093 22.3358 17.8898L22.2669 17.932C22.2822 17.932 22.4201 17.7288 22.4622 17.6291C22.3933 17.7786 22.1099 18.1121 22.0601 18.2885L22.2248 18.07C22.0908 18.3115 21.9682 18.6449 21.7385 18.9056C21.861 18.8021 21.7844 18.8404 21.9644 18.6679C21.8074 18.8213 22.4277 17.9128 22.198 18.1735C22.286 18.0776 22.3473 17.9895 22.4124 17.8898C22.4775 17.7901 22.5502 17.6828 22.6383 17.5448C22.623 17.5486 22.5656 17.6406 22.6996 17.38C22.7034 17.3646 22.7111 17.3378 22.7187 17.3186C22.7226 17.311 22.7226 17.3071 22.7264 17.2995L22.7187 17.3148C22.7226 17.3033 22.7226 17.3033 22.7149 17.3186C22.6804 17.38 22.6498 17.426 22.6345 17.4451C22.6728 17.3033 22.8719 16.8893 22.9255 16.7437C23.0059 16.5903 22.9064 16.8126 22.96 16.736C22.9868 16.6632 23.0136 16.5903 23.0289 16.5137C23.0633 16.5022 23.228 16.0997 23.1055 16.4907L23.2318 16.1457C23.3199 15.9502 23.431 15.6742 23.4769 15.494C23.5267 15.3292 23.5573 15.0647 23.5382 15.2142L23.6645 14.6545L23.6722 14.6507C23.7564 14.3785 23.7718 14.0872 23.8177 13.7882C23.8522 13.4892 23.9173 13.1864 23.9441 12.8606C23.9479 12.6689 23.9479 12.4734 23.9709 12.1552L23.9977 12.0939C24.0053 11.8486 23.9938 11.3579 23.967 11.2544C23.9823 11.1816 23.9862 11.0743 23.9862 10.9439ZM23.5497 9.06181C23.5535 9.08481 23.5841 9.24581 23.6148 9.42214C23.653 9.59463 23.6454 9.79013 23.653 9.86296C23.653 9.87446 23.653 9.88213 23.6492 9.88979C23.6262 9.7518 23.5994 9.61763 23.5726 9.47964L23.6148 9.46047L23.5611 9.42214C23.5305 9.28031 23.4999 9.14231 23.4654 9.00048C23.496 9.00048 23.5267 9.01581 23.5497 9.06181ZM22.8527 7.06852C22.9178 7.18352 22.9868 7.29851 23.0327 7.42501C22.9868 7.33685 22.8834 7.19885 22.7723 7.04169C22.6766 6.83469 22.5809 6.63153 22.4737 6.42837C22.5885 6.57786 22.7149 6.76186 22.8259 6.96885L22.8527 7.06852ZM20.2336 3.36176C20.2068 3.3541 20.203 3.37326 20.1991 3.39626C20.1417 3.33876 20.0843 3.2851 20.023 3.23143C20.0958 3.2736 20.1647 3.3196 20.2336 3.36176ZM14.5626 0.314327C14.6201 0.337326 14.5665 0.337326 14.486 0.333493C14.5205 0.337326 14.5511 0.34116 14.5741 0.344993C14.6201 0.360326 14.643 0.371826 14.6545 0.379492C14.5818 0.364159 14.509 0.344993 14.4363 0.32966C14.4516 0.32966 14.4707 0.32966 14.4822 0.333493C14.4516 0.32966 14.4171 0.321993 14.3788 0.31816C14.3291 0.30666 14.2831 0.298994 14.2333 0.291327C14.1682 0.272161 14.107 0.252995 14.0687 0.241495C14.241 0.260661 14.4018 0.275994 14.5626 0.314327ZM0.348819 14.8155L0.337332 14.735C0.39094 14.9114 0.371794 14.8654 0.348819 14.8155ZM21.0186 19.6186C21.099 19.5228 21.1756 19.4269 21.2522 19.3311C21.1986 19.4193 21.1181 19.5304 21.0186 19.6186ZM23.3123 15.8658C23.3123 15.862 23.3122 15.8582 23.3161 15.8582C23.3927 15.6703 23.3659 15.7355 23.3123 15.8658ZM23.6913 14.1984C23.6684 14.4207 23.6339 14.4629 23.6262 14.4667C23.6186 14.4667 23.6186 14.4207 23.6109 14.459C23.5037 14.8654 23.4807 15.0417 23.4578 15.2065C23.4348 15.3675 23.4233 15.517 23.2778 15.8352C23.1514 16.0843 23.2089 15.8237 23.1667 15.8735C23.2203 15.701 23.2778 15.5745 23.3237 15.4557C23.362 15.3368 23.3965 15.2333 23.4271 15.1145L23.3352 15.402C23.3429 15.3522 23.3582 15.2793 23.3735 15.2027C23.4807 14.8309 23.5688 14.4514 23.6377 14.068C23.6377 14.0719 23.6377 14.0757 23.6377 14.0795C23.6339 14.1562 23.6186 14.2789 23.6377 14.229L23.6798 13.907C23.676 13.8955 23.6722 13.9032 23.6684 13.9147C23.699 13.7422 23.722 13.5659 23.7411 13.3896C23.7449 13.5621 23.7296 13.8495 23.6913 14.1984ZM23.8215 11.4768C23.8177 11.4116 23.8177 11.3503 23.8139 11.2851C23.8215 11.3464 23.8292 11.4039 23.8368 11.4614C23.8292 11.4538 23.8254 11.4614 23.8215 11.4768Z" fill="#F9F9F9"/>
<path d="M22.2139 18.2656L22.3479 18.0317C22.2828 18.1429 22.2522 18.1812 22.2139 18.2349C22.2215 18.2311 22.2598 18.1927 22.2139 18.2656Z" fill="#F9F9F9"/>
<path d="M21.9986 18.4263C21.9603 18.4263 21.8991 18.5873 21.7842 18.7329L21.8033 18.7061C21.8033 18.7713 21.9144 18.6064 21.9986 18.4263Z" fill="#F9F9F9"/>
<path d="M21.6582 18.9056C21.6582 18.9324 21.7041 18.8519 21.7616 18.7676C21.7271 18.8136 21.6888 18.8596 21.6582 18.9056Z" fill="#F9F9F9"/>
<path d="M22.9752 16.755C22.9293 16.8317 22.9791 16.8202 22.9484 16.8585C22.9408 16.962 23.1667 16.3027 22.9752 16.755Z" fill="#F9F9F9"/>
<path d="M22.4624 17.5102C22.47 17.5102 22.4547 17.5447 22.4355 17.5868C22.516 17.422 22.6079 17.2418 22.5964 17.2457L22.4624 17.5102Z" fill="#F9F9F9"/>
<path d="M22.439 17.5869C22.3931 17.6712 22.3433 17.7479 22.3203 17.7977C22.3471 17.7517 22.4084 17.6559 22.439 17.5869Z" fill="#F9F9F9"/>
<path d="M11.2842 23.9384L11.5331 23.9614L11.3723 23.9346L11.2842 23.9384Z" fill="#F9F9F9"/>
<path d="M11.7637 23.916L11.8211 23.9582L11.9704 23.9275C11.9168 23.9275 11.8058 23.9275 11.7637 23.916Z" fill="#F9F9F9"/>
<path d="M16.2175 5.26904H18.4665L13.5531 10.8847L19.3333 18.5264H14.8075L11.2627 13.8917L7.20662 18.5264H4.95628L10.2116 12.5198L4.66666 5.26904H9.3074L12.5116 9.50526L16.2175 5.26904ZM15.4282 17.1802H16.6744L8.63025 6.54446H7.29296L15.4282 17.1802Z" fill="#323232"/>
</svg>
